<svg width="24" height="24" viewBox="0 0 24 24" fill="none" xmlns="http://www.w3.org/2000/svg">
<path d="M11 9H14V11.5H3.25C3.11193 11.5 3 11.6119 3 11.75V20.75C3 20.8881 3.11193 21 3.25 21H20.75C20.7674 21 20.7844 20.9985 20.8008 20.9951C20.8982 20.975 20.975 20.8982 20.9951 20.8008C20.9985 20.7844 21 20.7674 21 20.75V11.75C21 11.7326 20.9985 11.7156 20.9951 11.6992C20.9717 11.5855 20.8707 11.5 20.75 11.5H17V9H20V7H21C21.5523 7 22 7.44772 22 8V21C22 21.5523 21.5523 22 21 22H3C2.44772 22 2 21.5523 2 21V8C2 7.44772 2.44772 7 3 7H11V9ZM8.75 20.5H3.5V18H8.75V20.5ZM14.75 20.5H9.25V18H14.75V20.5ZM20.5 20.5H15.25V18H20.5V20.5ZM8.75 17.5H3.5V15H8.75V17.5ZM14.75 17.5H9.25V15H14.75V17.5ZM20.5 17.5H15.25V15H20.5V17.5ZM8.75 14.5H3.5V12H8.75V14.5ZM14.75 14.5H9.25V12H14.75V14.5ZM20.5 14.5H15.25V12H20.5V14.5ZM16.5 6.5H19.5V8.5H16.5V11.5H14.5V8.5H11.5V6.5H14.5V3.5H16.5V6.5Z" fill="#303030"/>
</svg>
