<svg width="24" height="24" viewBox="0 0 24 24" fill="none" xmlns="http://www.w3.org/2000/svg">
<mask id="path-1-inside-1_366_932" fill="white">
<path d="M3.82843 13.1924C5.22156 11.7993 7.38584 11.6498 8.94597 12.7415L15.3541 6.33337L16.3444 7.3236L15.0717 8.59625L16.6979 10.2225L15.7077 11.2127L14.0815 9.58648L12.9504 10.7176L14.5766 12.3438L13.5864 13.334L11.9602 11.7078L9.9362 13.7318C11.028 15.2919 10.8784 17.4562 9.48528 18.8493C7.92318 20.4114 5.39052 20.4114 3.82843 18.8493C2.26633 17.2872 2.26633 14.7545 3.82843 13.1924ZM4.81865 14.1827C3.80329 15.198 3.80329 16.8437 4.81865 17.8591C5.83402 18.8744 7.47969 18.8744 8.49506 17.8591C9.51042 16.8437 9.51042 15.198 8.49506 14.1827C7.47969 13.1673 5.83402 13.1673 4.81865 14.1827Z"/>
</mask>
<path d="M3.82843 13.1924C5.22156 11.7993 7.38584 11.6498 8.94597 12.7415L15.3541 6.33337L16.3444 7.3236L15.0717 8.59625L16.6979 10.2225L15.7077 11.2127L14.0815 9.58648L12.9504 10.7176L14.5766 12.3438L13.5864 13.334L11.9602 11.7078L9.9362 13.7318C11.028 15.2919 10.8784 17.4562 9.48528 18.8493C7.92318 20.4114 5.39052 20.4114 3.82843 18.8493C2.26633 17.2872 2.26633 14.7545 3.82843 13.1924ZM4.81865 14.1827C3.80329 15.198 3.80329 16.8437 4.81865 17.8591C5.83402 18.8744 7.47969 18.8744 8.49506 17.8591C9.51042 16.8437 9.51042 15.198 8.49506 14.1827C7.47969 13.1673 5.83402 13.1673 4.81865 14.1827Z" fill="black"/>
<path d="M8.94597 12.7415L8.37263 13.5608L9.05992 14.0418L9.65308 13.4486L8.94597 12.7415ZM15.3541 6.33337L16.0612 5.62627L15.3541 4.91916L14.647 5.62627L15.3541 6.33337ZM16.3444 7.3236L17.0515 8.03071L17.7586 7.3236L17.0515 6.61649L16.3444 7.3236ZM15.0717 8.59625L14.3646 7.88915L13.6575 8.59625L14.3646 9.30336L15.0717 8.59625ZM16.6979 10.2225L17.405 10.9296L18.1121 10.2225L17.405 9.51535L16.6979 10.2225ZM15.7077 11.2127L15.0006 11.9198L15.7077 12.6269L16.4148 11.9198L15.7077 11.2127ZM14.0815 9.58648L14.7886 8.87937L14.0815 8.17227L13.3744 8.87937L14.0815 9.58648ZM12.9504 10.7176L12.2433 10.0105L11.5362 10.7176L12.2433 11.4247L12.9504 10.7176ZM14.5766 12.3438L15.2837 13.0509L15.9908 12.3438L15.2837 11.6367L14.5766 12.3438ZM13.5864 13.334L12.8793 14.0411L13.5864 14.7482L14.2935 14.0411L13.5864 13.334ZM11.9602 11.7078L12.6673 11.0007L11.9602 10.2936L11.253 11.0007L11.9602 11.7078ZM9.9362 13.7318L9.22909 13.0246L8.63593 13.6178L9.11689 14.3051L9.9362 13.7318ZM3.82843 13.1924L4.53553 13.8996C5.57929 12.8558 7.20268 12.7421 8.37263 13.5608L8.94597 12.7415L9.51932 11.9222C7.56901 10.5574 4.86383 10.7428 3.12132 12.4853L3.82843 13.1924ZM8.94597 12.7415L9.65308 13.4486L16.0612 7.04048L15.3541 6.33337L14.647 5.62627L8.23887 12.0344L8.94597 12.7415ZM15.3541 6.33337L14.647 7.04048L15.6372 8.03071L16.3444 7.3236L17.0515 6.61649L16.0612 5.62627L15.3541 6.33337ZM16.3444 7.3236L15.6372 6.61649L14.3646 7.88915L15.0717 8.59625L15.7788 9.30336L17.0515 8.03071L16.3444 7.3236ZM15.0717 8.59625L14.3646 9.30336L15.9908 10.9296L16.6979 10.2225L17.405 9.51535L15.7788 7.88915L15.0717 8.59625ZM16.6979 10.2225L15.9908 9.51535L15.0006 10.5056L15.7077 11.2127L16.4148 11.9198L17.405 10.9296L16.6979 10.2225ZM15.7077 11.2127L16.4148 10.5056L14.7886 8.87937L14.0815 9.58648L13.3744 10.2936L15.0006 11.9198L15.7077 11.2127ZM14.0815 9.58648L13.3744 8.87937L12.2433 10.0105L12.9504 10.7176L13.6575 11.4247L14.7886 10.2936L14.0815 9.58648ZM12.9504 10.7176L12.2433 11.4247L13.8695 13.0509L14.5766 12.3438L15.2837 11.6367L13.6575 10.0105L12.9504 10.7176ZM14.5766 12.3438L13.8695 11.6367L12.8793 12.6269L13.5864 13.334L14.2935 14.0411L15.2837 13.0509L14.5766 12.3438ZM13.5864 13.334L14.2935 12.6269L12.6673 11.0007L11.9602 11.7078L11.253 12.4149L12.8793 14.0411L13.5864 13.334ZM11.9602 11.7078L11.253 11.0007L9.22909 13.0246L9.9362 13.7318L10.6433 14.4389L12.6673 12.4149L11.9602 11.7078ZM9.9362 13.7318L9.11689 14.3051C9.9356 15.4751 9.82193 17.0984 8.77817 18.1422L9.48528 18.8493L10.1924 19.5564C11.9349 17.8139 12.1203 15.1087 10.7555 13.1584L9.9362 13.7318ZM9.48528 18.8493L8.77817 18.1422C7.6066 19.3138 5.70711 19.3138 4.53553 18.1422L3.82843 18.8493L3.12132 19.5564C5.07394 21.509 8.23977 21.509 10.1924 19.5564L9.48528 18.8493ZM3.82843 18.8493L4.53553 18.1422C3.36396 16.9706 3.36396 15.0711 4.53553 13.8996L3.82843 13.1924L3.12132 12.4853C1.1687 14.438 1.1687 17.6038 3.12132 19.5564L3.82843 18.8493ZM4.81865 14.1827L4.11155 13.4756C2.70566 14.8815 2.70566 17.1603 4.11155 18.5662L4.81865 17.8591L5.52576 17.152C4.90092 16.5271 4.90092 15.5146 5.52576 14.8898L4.81865 14.1827ZM4.81865 17.8591L4.11155 18.5662C5.51743 19.9721 7.79627 19.9721 9.20216 18.5662L8.49506 17.8591L7.78795 17.152C7.16311 17.7768 6.1506 17.7768 5.52576 17.152L4.81865 17.8591ZM8.49506 17.8591L9.20216 18.5662C10.608 17.1603 10.608 14.8815 9.20216 13.4756L8.49506 14.1827L7.78795 14.8898C8.41279 15.5146 8.41279 16.5271 7.78795 17.152L8.49506 17.8591ZM8.49506 14.1827L9.20216 13.4756C7.79627 12.0697 5.51743 12.0697 4.11155 13.4756L4.81865 14.1827L5.52576 14.8898C6.1506 14.2649 7.16311 14.2649 7.78795 14.8898L8.49506 14.1827Z" fill="#303030" mask="url(#path-1-inside-1_366_932)"/>
<path d="M19.7148 3.7998H21.5V5.2002H19.7148V7H18.3145V5.2002H16.5V3.7998H18.3145V2H19.7148V3.7998Z" fill="black"/>
</svg>
