<svg width="24" height="24" viewBox="0 0 24 24" fill="none" xmlns="http://www.w3.org/2000/svg">
<path d="M18.077 13.6896V10.7298H15.1172V9.3308H18.077V6.3713H19.476V9.3308H22.4355V10.7298H19.476V13.6896H18.077ZM9.02025 11.7126C8.07958 11.7126 7.27791 11.3812 6.61525 10.7186C5.95258 10.0559 5.62125 9.25422 5.62125 8.31355C5.62125 7.37288 5.95258 6.57122 6.61525 5.90855C7.27791 5.24588 8.07958 4.91455 9.02025 4.91455C9.96091 4.91455 10.7626 5.24588 11.4252 5.90855C12.0879 6.57122 12.4192 7.37288 12.4192 8.31355C12.4192 9.25422 12.0879 10.0559 11.4252 10.7186C10.7626 11.3812 9.96091 11.7126 9.02025 11.7126ZM1.702 19.0453V16.9433C1.702 16.4663 1.8295 16.028 2.0845 15.6283C2.33966 15.2285 2.68691 14.9196 3.12625 14.7018C4.10325 14.2305 5.08283 13.8749 6.065 13.6351C7.04733 13.3951 8.03241 13.2751 9.02025 13.2751C10.0082 13.2751 10.9937 13.395 11.9765 13.6348C12.9595 13.8745 13.9391 14.23 14.9152 14.7013C15.3542 14.9193 15.7012 15.2282 15.9562 15.6281C16.2111 16.0279 16.3385 16.4663 16.3385 16.9433V19.0453H1.702ZM3.101 17.6463H14.9395V16.9446C14.9395 16.7381 14.8808 16.5481 14.7635 16.3746C14.6462 16.2012 14.4842 16.0585 14.2777 15.9463C13.4206 15.527 12.5532 15.2101 11.6757 14.9958C10.7984 14.7813 9.913 14.6741 9.0195 14.6741C8.12033 14.6741 7.2335 14.7813 6.359 14.9958C5.48433 15.2101 4.62041 15.527 3.76725 15.9463C3.55775 16.0585 3.39433 16.2016 3.277 16.3756C3.15966 16.5496 3.101 16.7388 3.101 16.9433V17.6463ZM9.02025 10.3135C9.57025 10.3135 10.0411 10.1177 10.4327 9.72605C10.8244 9.33438 11.0202 8.86355 11.0202 8.31355C11.0202 7.76355 10.8244 7.29272 10.4327 6.90105C10.0411 6.50938 9.57025 6.31355 9.02025 6.31355C8.47025 6.31355 7.99941 6.50938 7.60775 6.90105C7.21608 7.29272 7.02025 7.76355 7.02025 8.31355C7.02025 8.86355 7.21608 9.33438 7.60775 9.72605C7.99941 10.1177 8.47025 10.3135 9.02025 10.3135Z" fill="#1F1F1F"/>
</svg>
