<svg width="24" height="24" viewBox="0 0 24 24" fill="none" xmlns="http://www.w3.org/2000/svg">
<path d="M2.702 20.7355V4.38801C2.702 3.91435 2.86791 3.5116 3.19975 3.17976C3.53175 2.84776 3.934 2.68176 4.4065 2.68176H19.5935C20.066 2.68176 20.4682 2.84776 20.8002 3.17976C21.1321 3.5116 21.298 3.91385 21.298 4.38651V15.6135C21.298 16.0862 21.1321 16.4884 20.8002 16.8203C20.4682 17.1523 20.066 17.3183 19.5935 17.3183H6.11925L2.702 20.7355ZM5.53375 15.9193H19.5912C19.6682 15.9193 19.7388 15.8872 19.803 15.823C19.867 15.759 19.899 15.6885 19.899 15.6115V4.38851C19.899 4.31151 19.867 4.24101 19.803 4.17701C19.7388 4.11285 19.6682 4.08076 19.5912 4.08076H4.40875C4.33175 4.08076 4.26116 4.11285 4.197 4.17701C4.133 4.24101 4.101 4.31151 4.101 4.38851V17.3443L5.53375 15.9193Z" fill="#1F1F1F"/>
<path d="M8.13281 14H6.23438L9.17578 5.51562H11.4375L14.3672 14H12.4805L11.8477 12.043H8.77734L8.13281 14ZM9.22266 10.6719H11.4023L10.3359 7.42578H10.2773L9.22266 10.6719ZM17.0859 5.51562V14H15.3281V5.51562H17.0859Z" fill="black"/>
</svg>
