<svg width="24" height="24" viewBox="0 0 24 24" fill="none" xmlns="http://www.w3.org/2000/svg">
<path d="M2.12799 20.3182L12 3.28271L21.872 20.3182H2.12799ZM11.9972 17.7067C12.2177 17.7067 12.4012 17.6344 12.5475 17.4897C12.694 17.3449 12.7672 17.1623 12.7672 16.942C12.7672 16.7216 12.6949 16.5382 12.5502 16.3917C12.4056 16.2454 12.2231 16.1722 12.0027 16.1722C11.7822 16.1722 11.5988 16.2445 11.4525 16.3892C11.306 16.5339 11.2327 16.7164 11.2327 16.9367C11.2327 17.157 11.3051 17.3405 11.4497 17.487C11.5944 17.6335 11.7769 17.7067 11.9972 17.7067ZM11.3105 15.1922H12.7095V10.253H11.3105V15.1922Z" fill="#FFD166"/>
</svg>
