<svg width="24" height="24" viewBox="0 0 24 24" fill="none" xmlns="http://www.w3.org/2000/svg">
<path d="M11.9972 16.6297C12.2177 16.6297 12.4012 16.5573 12.5475 16.4127C12.694 16.268 12.7672 16.0855 12.7672 15.8652C12.7672 15.6447 12.6949 15.4612 12.5502 15.3149C12.4056 15.1684 12.2231 15.0952 12.0027 15.0952C11.7822 15.0952 11.5988 15.1675 11.4525 15.3122C11.306 15.4568 11.2327 15.6393 11.2327 15.8597C11.2327 16.08 11.3051 16.2634 11.4497 16.4099C11.5944 16.5564 11.7769 16.6297 11.9972 16.6297ZM11.3105 13.0769H12.7095V7.15765H11.3105V13.0769ZM12.0022 21.2979C10.7164 21.2979 9.50758 21.0536 8.37575 20.5649C7.24375 20.0761 6.25908 19.4127 5.42175 18.5749C4.58458 17.7371 3.922 16.7533 3.434 15.6237C2.946 14.4938 2.702 13.2867 2.702 12.0022C2.702 10.7163 2.94633 9.50749 3.435 8.37565C3.92383 7.24365 4.58716 6.25899 5.425 5.42165C6.26283 4.58449 7.24658 3.9219 8.37625 3.4339C9.50608 2.9459 10.7132 2.7019 11.9977 2.7019C13.2836 2.7019 14.4924 2.94624 15.6242 3.4349C16.7562 3.92374 17.7409 4.58707 18.5782 5.4249C19.4154 6.26274 20.078 7.24649 20.566 8.37615C21.054 9.50599 21.298 10.7132 21.298 11.9977C21.298 13.2835 21.0537 14.4923 20.565 15.6242C20.0762 16.7562 19.4128 17.7408 18.575 18.5782C17.7372 19.4153 16.7534 20.0779 15.6237 20.5659C14.4939 21.0539 13.2867 21.2979 12.0022 21.2979Z" fill="#DC3545"/>
</svg>
