<svg width="21" height="20" viewBox="0 0 21 20" fill="none" xmlns="http://www.w3.org/2000/svg">
<path d="M0.75 10.51C0.75 12.11 1.873 13.504 3.457 13.737C4.525 13.894 5.605 14.016 6.695 14.101C7.161 14.138 7.588 14.382 7.848 14.772L10.5 18.75L13.152 14.772C13.412 14.382 13.839 14.138 14.305 14.102C15.395 14.016 16.475 13.894 17.543 13.737C19.127 13.504 20.25 12.111 20.25 10.509V4.491C20.25 2.889 19.127 1.496 17.543 1.263C15.211 0.920716 12.857 0.74926 10.5 0.750002C8.108 0.750002 5.756 0.925002 3.457 1.263C1.873 1.496 0.75 2.89 0.75 4.491V10.509V10.51Z" stroke="black" stroke-width="1.5" stroke-linecap="round" stroke-linejoin="round"/>
</svg>
