<svg width="24" height="24" viewBox="0 0 24 24" fill="none" xmlns="http://www.w3.org/2000/svg">
<path d="M8.95675 17.5C8.48275 17.5 8.07983 17.334 7.748 17.002C7.416 16.6702 7.25 16.2673 7.25 15.7933V4.40878C7.25 3.93478 7.416 3.53178 7.748 3.19978C8.07983 2.86794 8.48275 2.70203 8.95675 2.70203H17.3412C17.8152 2.70203 18.2182 2.86794 18.5502 3.19978C18.8821 3.53178 19.048 3.93478 19.048 4.40878V15.7933C19.048 16.2673 18.8821 16.6702 18.5502 17.002C18.2182 17.334 17.8152 17.5 17.3412 17.5H8.95675ZM8.95675 16.101H17.3412C17.4182 16.101 17.4887 16.0689 17.5527 16.0048C17.6169 15.9408 17.649 15.8703 17.649 15.7933V4.40878C17.649 4.33178 17.6169 4.26119 17.5527 4.19703C17.4887 4.13303 17.4182 4.10103 17.3412 4.10103H8.95675C8.87975 4.10103 8.80925 4.13303 8.74525 4.19703C8.68108 4.26119 8.649 4.33178 8.649 4.40878V15.7933C8.649 15.8703 8.68108 15.9408 8.74525 16.0048C8.80925 16.0689 8.87975 16.101 8.95675 16.101ZM5.65875 20.798C5.18475 20.798 4.78175 20.632 4.44975 20.3C4.11791 19.9682 3.952 19.5653 3.952 19.0913V6.30778H5.351V19.0913C5.351 19.1683 5.38308 19.2388 5.44725 19.3028C5.51125 19.3669 5.58175 19.399 5.65875 19.399H15.4422V20.798H5.65875Z" fill="#1F1F1F"/>
</svg>
