<svg width="24" height="24" viewBox="0 0 24 24" fill="none" xmlns="http://www.w3.org/2000/svg">
<path d="M7.36826 20.298C6.89726 20.298 6.4951 20.1313 6.16176 19.798C5.82826 19.4645 5.66151 19.0623 5.66151 18.5913V6.06051H4.68176V4.66326H9.04051V3.81726H14.9798V4.66151H19.3385V6.06051H18.3585V18.5935C18.3585 19.066 18.1926 19.4683 17.8608 19.8003C17.5288 20.1321 17.1258 20.298 16.652 20.298H7.36826ZM16.9595 6.06051H7.06051V18.5913C7.06051 18.6811 7.08935 18.7548 7.14701 18.8125C7.20485 18.8702 7.2786 18.899 7.36826 18.899H16.652C16.7288 18.899 16.7993 18.867 16.8635 18.803C16.9275 18.7388 16.9595 18.6683 16.9595 18.5913V6.06051ZM9.50476 16.927H10.9038V8.02801H9.50476V16.927ZM13.1163 16.927H14.5153V8.02801H13.1163V16.927Z" fill="#1F1F1F"/>
</svg>
