<svg width="24" height="24" viewBox="0 0 24 24" fill="none" xmlns="http://www.w3.org/2000/svg">
<g clip-path="url(#clip0_514_2929)">
<path d="M22 19.7002C22 20.8048 21.1046 21.7002 20 21.7002H4C2.89543 21.7002 2 20.8048 2 19.7002V4.2998C2 3.19524 2.89543 2.2998 4 2.2998H20C21.1046 2.2998 22 3.19524 22 4.2998V19.7002ZM5.40039 3.7002C4.29582 3.7002 3.40039 4.59563 3.40039 5.7002V18.2998C3.40039 19.4044 4.29582 20.2998 5.40039 20.2998H18.5996C19.7042 20.2998 20.5996 19.4044 20.5996 18.2998V5.7002C20.5996 4.59563 19.7042 3.7002 18.5996 3.7002H5.40039Z" fill="black"/>
<path d="M11.9375 18H7.95312V6.6875H11.9844C15.3906 6.6875 17.4688 8.8125 17.4688 12.3281C17.4688 15.875 15.3906 18 11.9375 18ZM10.2969 15.9844H11.8438C14 15.9844 15.125 14.8594 15.125 12.3281C15.125 9.8125 14 8.70312 11.8594 8.70312H10.2969V15.9844Z" fill="black"/>
</g>
<defs>
<clipPath id="clip0_514_2929">
<rect width="24" height="24" fill="white"/>
</clipPath>
</defs>
</svg>
