<svg width="24" height="24" viewBox="0 0 24 24" fill="none" xmlns="http://www.w3.org/2000/svg">
<path d="M5.38626 20.3182C4.91376 20.3182 4.5116 20.1522 4.17976 19.8202C3.84776 19.4884 3.68176 19.0862 3.68176 18.6137V5.38623C3.68176 4.91373 3.84776 4.51156 4.17976 4.17973C4.5116 3.84773 4.91451 3.68173 5.38851 3.68173H13.9838L12.5848 5.08073H5.38851C5.31151 5.08073 5.24101 5.11281 5.17701 5.17698C5.11285 5.24098 5.08076 5.31148 5.08076 5.38848V18.6115C5.08076 18.6885 5.11285 18.759 5.17701 18.823C5.24101 18.8871 5.31151 18.9192 5.38851 18.9192H18.6115C18.6885 18.9192 18.759 18.8871 18.823 18.823C18.8872 18.759 18.9193 18.6885 18.9193 18.6115V11.3395L20.3183 9.94048V18.6115C20.3183 19.0855 20.1523 19.4884 19.8203 19.8202C19.4884 20.1522 19.0863 20.3182 18.6138 20.3182H5.38626ZM9.55301 14.447V11.0875L18.6405 1.99523C18.7872 1.85156 18.9442 1.74806 19.1115 1.68473C19.2788 1.62123 19.4534 1.58948 19.6353 1.58948C19.8201 1.58948 19.9962 1.62039 20.1635 1.68223C20.3308 1.74406 20.4863 1.84514 20.6298 1.98548L21.9538 3.31048C22.0936 3.45731 22.1989 3.61839 22.2698 3.79373C22.3406 3.96906 22.376 4.14873 22.376 4.33273C22.376 4.51673 22.3455 4.69189 22.2845 4.85823C22.2237 5.02456 22.1198 5.17948 21.973 5.32298L12.8645 14.447H9.55301ZM10.952 13.048H12.2788L18.5598 6.75473L17.896 6.09123L17.201 5.42123L10.952 11.6577V13.048Z" fill="#303030"/>
</svg>
