<svg width="24" height="24" viewBox="0 0 24 24" fill="none" xmlns="http://www.w3.org/2000/svg">
<g clip-path="url(#clip0_890_2641)">
<path d="M22 19.7002C22 20.8048 21.1046 21.7002 20 21.7002H4C2.89543 21.7002 2 20.8048 2 19.7002V4.2998C2 3.19524 2.89543 2.2998 4 2.2998H20C21.1046 2.2998 22 3.19524 22 4.2998V19.7002ZM5.40039 3.7002C4.29582 3.7002 3.40039 4.59563 3.40039 5.7002V18.2998C3.40039 19.4044 4.29582 20.2998 5.40039 20.2998H18.5996C19.7042 20.2998 20.5996 19.4044 20.5996 18.2998V5.7002C20.5996 4.59563 19.7042 3.7002 18.5996 3.7002H5.40039Z" fill="black"/>
<path d="M7.95312 18V6.6875H15.5469V8.625H10.2969V11.375H15.1562V13.3125H10.2969V16.0625H15.5625V18H7.95312Z" fill="black"/>
</g>
<defs>
<clipPath id="clip0_890_2641">
<rect width="24" height="24" fill="white"/>
</clipPath>
</defs>
</svg>
