<svg width="24" height="24" viewBox="0 0 24 24" fill="none" xmlns="http://www.w3.org/2000/svg">
<path d="M17.6125 15.5853C17.6125 17.1696 17.0647 18.5179 15.969 19.63C14.8732 20.742 13.5345 21.298 11.953 21.298C10.3715 21.298 9.03091 20.7419 7.93124 19.6295C6.83157 18.517 6.28174 17.1684 6.28174 15.5838V6.75328C6.28174 5.62878 6.67057 4.67244 7.44824 3.88428C8.22607 3.09611 9.17507 2.70203 10.2952 2.70203C11.4137 2.70203 12.361 3.09778 13.137 3.88928C13.913 4.68078 14.301 5.63594 14.301 6.75478V15.1105C14.301 15.7637 14.0747 16.3222 13.6222 16.786C13.1697 17.2499 12.6157 17.4818 11.9602 17.4818C11.3047 17.4818 10.7472 17.2515 10.2875 16.791C9.82782 16.3305 9.59799 15.7704 9.59799 15.1105V6.52603H10.997V15.1105C10.997 15.3817 11.0883 15.6115 11.271 15.8C11.4535 15.9885 11.6805 16.0828 11.952 16.0828C12.225 16.0828 12.4516 15.9892 12.6317 15.802C12.8119 15.6149 12.902 15.3844 12.902 15.1105V6.74528C12.8968 6.00678 12.6448 5.38144 12.146 4.86928C11.6472 4.35711 11.0302 4.10103 10.295 4.10103C9.56299 4.10103 8.94432 4.35869 8.43899 4.87403C7.93349 5.38936 7.68074 6.01628 7.68074 6.75478V15.5815C7.67557 16.7785 8.08807 17.7974 8.91824 18.638C9.74841 19.4787 10.7615 19.899 11.9575 19.899C13.1368 19.899 14.1392 19.4787 14.9647 18.638C15.7902 17.7974 16.2065 16.7793 16.2135 15.5838V6.52603H17.6125V15.5853Z" fill="#1F1F1F"/>
</svg>
