<svg width="24" height="24" viewBox="0 0 24 24" fill="none" xmlns="http://www.w3.org/2000/svg">
<path d="M11.4677 19.3183C11.2284 19.3183 11.0241 19.2369 10.8547 19.0743C10.6856 18.9114 10.601 18.7113 10.601 18.474V12.7865L5.12399 5.83651C4.93682 5.59368 4.91007 5.34051 5.04374 5.07701C5.17724 4.81351 5.3994 4.68176 5.71024 4.68176H18.2887C18.5994 4.68176 18.8217 4.81351 18.9557 5.07701C19.0897 5.34051 19.0632 5.59368 18.876 5.83651L13.399 12.7865V18.474C13.399 18.7113 13.3144 18.9114 13.1452 19.0743C12.9759 19.2369 12.7716 19.3183 12.5322 19.3183H11.4677ZM12 12.3L16.8895 6.08076H7.11049L12 12.3Z" fill="#1F1F1F"/>
</svg>
