<svg width="39" height="38" viewBox="0 0 39 38" fill="none" xmlns="http://www.w3.org/2000/svg">
<g clip-path="url(#clip0_289_1917)">
<mask id="mask0_289_1917" style="mask-type:luminance" maskUnits="userSpaceOnUse" x="0" y="0" width="39" height="38">
<path d="M39 0H0V38H39V0Z" fill="white"/>
</mask>
<g mask="url(#mask0_289_1917)">
<path d="M19.5006 7.52084C22.3768 7.52084 24.9523 8.48666 26.9837 10.3708L32.5493 4.94791C29.1692 1.88417 24.7573 0 19.5006 0C11.8793 0 5.28993 4.25916 2.08057 10.4658L8.56433 15.3662C10.1 10.8617 14.4143 7.52084 19.5006 7.52084Z" fill="#EA4335"/>
<path d="M38.1712 19.4356C38.1712 18.1927 38.0494 16.9893 37.8624 15.8335H19.5V22.9743H30.0137C29.5425 25.3176 28.1775 27.3126 26.13 28.6585L32.4107 33.4085C36.075 30.0994 38.1712 25.2069 38.1712 19.4356Z" fill="#4285F4"/>
<path d="M8.55562 22.6337C8.16562 21.4858 7.93813 20.2666 7.93813 19C7.93813 17.7333 8.15751 16.5141 8.55562 15.3662L2.07188 10.4658C0.747501 13.0308 0 15.9283 0 19C0 22.0716 0.747501 24.969 2.08 27.534L8.55562 22.6337Z" fill="#FBBC05"/>
<path d="M19.5002 38.0001C24.7652 38.0001 29.1934 36.3139 32.4109 33.4005L26.1302 28.6505C24.3832 29.7985 22.1327 30.4714 19.5002 30.4714C14.4139 30.4714 10.0995 27.1305 8.55578 22.626L2.07202 27.5264C5.28953 33.741 11.8789 38.0001 19.5002 38.0001Z" fill="#34A853"/>
</g>
</g>
<defs>
<clipPath id="clip0_289_1917">
<rect width="39" height="38" fill="white"/>
</clipPath>
</defs>
</svg>
