<svg width="24" height="24" viewBox="0 0 24 24" fill="none" xmlns="http://www.w3.org/2000/svg">
<path d="M4.4065 19.3183C3.934 19.3183 3.53175 19.1523 3.19975 18.8203C2.86791 18.4884 2.702 18.0862 2.702 17.6135V6.38651C2.702 5.91385 2.86791 5.5116 3.19975 5.17976C3.53175 4.84776 3.934 4.68176 4.4065 4.68176H19.5935C20.066 4.68176 20.4682 4.84776 20.8002 5.17976C21.1321 5.5116 21.298 5.91385 21.298 6.38651V17.6135C21.298 18.0862 21.1321 18.4884 20.8002 18.8203C20.4682 19.1523 20.066 19.3183 19.5935 19.3183H4.4065ZM12 12.4823L4.101 7.42201V17.6115C4.101 17.7013 4.12983 17.7751 4.1875 17.8328C4.24516 17.8904 4.31891 17.9193 4.40875 17.9193H19.5912C19.6811 17.9193 19.7548 17.8904 19.8125 17.8328C19.8702 17.7751 19.899 17.7013 19.899 17.6115V7.42201L12 12.4823ZM12 11.0203L19.725 6.08076H4.275L12 11.0203ZM4.101 7.42201V6.08076V17.6115C4.101 17.7013 4.12983 17.7751 4.1875 17.8328C4.24516 17.8904 4.31891 17.9193 4.40875 17.9193H4.101V7.42201Z" fill="#1F1F1F"/>
</svg>
