<svg width="24" height="24" viewBox="0 0 24 24" fill="none" xmlns="http://www.w3.org/2000/svg">
<path d="M5.98855 13.4595C5.58439 13.4595 5.24005 13.3174 4.95555 13.033C4.67122 12.7485 4.52905 12.4042 4.52905 12C4.52905 11.5959 4.67122 11.2515 4.95555 10.967C5.24005 10.6827 5.58439 10.5405 5.98855 10.5405C6.39272 10.5405 6.73705 10.6827 7.02155 10.967C7.30589 11.2515 7.44805 11.5959 7.44805 12C7.44805 12.4042 7.30589 12.7485 7.02155 13.033C6.73705 13.3174 6.39272 13.4595 5.98855 13.4595ZM12.0001 13.4595C11.5959 13.4595 11.2516 13.3174 10.9671 13.033C10.6827 12.7485 10.5406 12.4042 10.5406 12C10.5406 11.5959 10.6827 11.2515 10.9671 10.967C11.2516 10.6827 11.5959 10.5405 12.0001 10.5405C12.4042 10.5405 12.7486 10.6827 13.0331 10.967C13.3174 11.2515 13.4596 11.5959 13.4596 12C13.4596 12.4042 13.3174 12.7485 13.0331 13.033C12.7486 13.3174 12.4042 13.4595 12.0001 13.4595ZM18.0116 13.4595C17.6074 13.4595 17.2631 13.3174 16.9786 13.033C16.6942 12.7485 16.5521 12.4042 16.5521 12C16.5521 11.5959 16.6942 11.2515 16.9786 10.967C17.2631 10.6827 17.6074 10.5405 18.0116 10.5405C18.4157 10.5405 18.7601 10.6827 19.0446 10.967C19.3289 11.2515 19.4711 11.5959 19.4711 12C19.4711 12.4042 19.3289 12.7485 19.0446 13.033C18.7601 13.3174 18.4157 13.4595 18.0116 13.4595Z" fill="#303030"/>
</svg>
