<svg width="24" height="24" viewBox="0 0 24 24" fill="none" xmlns="http://www.w3.org/2000/svg">
<path d="M5.21628 18.7838V20.298C4.79994 20.298 4.44344 20.1498 4.14678 19.8533C3.85028 19.5566 3.70203 19.2001 3.70203 18.7838H5.21628ZM3.70203 16.5203V15.0058H5.21628V16.5203H3.70203ZM3.70203 12.7548V11.2405H5.21628V12.7548H3.70203ZM3.70203 8.98178V7.46728H5.21628V8.98178H3.70203ZM5.21628 5.21628H3.70203C3.70203 4.79994 3.85028 4.44344 4.14678 4.14678C4.44344 3.85028 4.79994 3.70203 5.21628 3.70203V5.21628ZM7.47978 20.298V18.7838H8.99428V20.298H7.47978ZM7.47978 5.21628V3.70203H8.99428V5.21628H7.47978ZM11.2453 20.298V18.7838H12.7595V20.298H11.2453ZM11.2453 5.21628V3.70203H12.7595V5.21628H11.2453ZM15.0183 20.298V18.7838H16.5328V20.298H15.0183ZM15.0183 5.21628V3.70203H16.5328V5.21628H15.0183ZM18.7838 18.7838H20.298C20.298 19.2001 20.1498 19.5566 19.8533 19.8533C19.5566 20.1498 19.2001 20.298 18.7838 20.298V18.7838ZM18.7838 16.5203V15.0058H20.298V16.5203H18.7838ZM18.7838 12.7548V11.2405H20.298V12.7548H18.7838ZM18.7838 8.98178V7.46728H20.298V8.98178H18.7838ZM18.7838 5.21628V3.70203C19.2001 3.70203 19.5566 3.85028 19.8533 4.14678C20.1498 4.44344 20.298 4.79994 20.298 5.21628H18.7838Z" fill="#1F1F1F"/>
</svg>
