<svg width="24" height="24" viewBox="0 0 24 24" fill="none" xmlns="http://www.w3.org/2000/svg">
<path d="M12.1347 19.298V17.899H14.883C14.9311 17.899 14.9768 17.8894 15.02 17.8702C15.0633 17.8509 15.101 17.822 15.133 17.7837L19.5442 12L15.1385 6.22397C15.1063 6.18547 15.0686 6.15663 15.0255 6.13747C14.9821 6.1183 14.9365 6.10872 14.8885 6.10872H4.40873C4.31889 6.10872 4.24514 6.1383 4.18748 6.19747C4.12981 6.2568 4.10098 6.32972 4.10098 6.41622V10.8077H2.70198V6.41147C2.70198 5.9438 2.86906 5.54322 3.20323 5.20972C3.53756 4.87638 3.93939 4.70972 4.40873 4.70972H14.8855C15.1558 4.70972 15.4118 4.7693 15.6535 4.88847C15.8953 5.00763 16.0945 5.17238 16.251 5.38272L21.298 12L16.251 18.625C16.0945 18.8353 15.8953 19.0001 15.6535 19.1192C15.4118 19.2384 15.1558 19.298 14.8855 19.298H12.1347ZM5.64423 20.298V17.298H2.64423V15.899H5.64423V12.899H7.04323V15.899H10.0432V17.298H7.04323V20.298H5.64423Z" fill="#1F1F1F"/>
</svg>
