<svg width="24" height="24" viewBox="0 0 24 24" fill="none" xmlns="http://www.w3.org/2000/svg">
<path d="M5.56728 19.298V17.899H18.4375V19.298H5.56728ZM5.52603 16.1663L4.19728 8.49528C4.15561 8.50678 4.11153 8.51378 4.06503 8.51628C4.01853 8.51894 3.97669 8.52028 3.93953 8.52028C3.59486 8.52028 3.30244 8.39878 3.06228 8.15578C2.82211 7.91294 2.70203 7.61803 2.70203 7.27103C2.70203 6.92219 2.82211 6.62544 3.06228 6.38078C3.30244 6.13594 3.59503 6.01353 3.94003 6.01353C4.28503 6.01353 4.58061 6.13569 4.82678 6.38003C5.07311 6.62436 5.19628 6.92111 5.19628 7.27028C5.19628 7.36644 5.18778 7.45444 5.17078 7.53428C5.15378 7.61394 5.12761 7.69161 5.09228 7.76728L8.25828 9.10953L11.2838 4.96903C11.1196 4.85419 10.9872 4.70778 10.8865 4.52978C10.7859 4.35161 10.7355 4.16128 10.7355 3.95878C10.7355 3.61361 10.8591 3.31786 11.1063 3.07153C11.3533 2.82519 11.6518 2.70203 12.0018 2.70203C12.3484 2.70203 12.6443 2.82503 12.8893 3.07103C13.1343 3.31703 13.2568 3.61228 13.2568 3.95678C13.2568 4.16378 13.2064 4.35553 13.1058 4.53203C13.0051 4.70853 12.8728 4.85419 12.7088 4.96903L15.734 9.10953L18.9 7.76728C18.8692 7.69394 18.8442 7.61636 18.825 7.53453C18.8059 7.45253 18.7963 7.36444 18.7963 7.27028C18.7963 6.92111 18.9154 6.62436 19.1535 6.38003C19.3917 6.13569 19.6853 6.01353 20.0343 6.01353C20.3826 6.01353 20.6804 6.13603 20.9275 6.38103C21.1745 6.62619 21.298 6.92378 21.298 7.27378C21.298 7.61761 21.1743 7.91128 20.9268 8.15478C20.6793 8.39844 20.3809 8.52028 20.0318 8.52028C19.9978 8.52028 19.9594 8.51736 19.9168 8.51153C19.8741 8.50586 19.8325 8.50044 19.792 8.49528L18.4605 16.1663H5.52603ZM6.72203 14.7673H17.2703L18.2163 9.61153L15.2578 10.8355L12 6.37203L8.73453 10.8355L5.77603 9.61153L6.72203 14.7673Z" fill="#1F1F1F"/>
</svg>
