<svg width="24" height="24" viewBox="0 0 24 24" fill="none" xmlns="http://www.w3.org/2000/svg">
<mask id="path-1-inside-1_366_822" fill="white">
<path d="M7 8C8.97019 8 10.6063 9.42464 10.9375 11.2998H20V12.7002H18.2002V15H16.7998V12.7002H15.2002V15H13.7998V12.7002H10.9375C10.6063 14.5754 8.97019 16 7 16C4.79086 16 3 14.2091 3 12C3 9.79086 4.79086 8 7 8ZM7 9.40039C5.56406 9.40039 4.40039 10.5641 4.40039 12C4.40039 13.4359 5.56406 14.5996 7 14.5996C8.43594 14.5996 9.59961 13.4359 9.59961 12C9.59961 10.5641 8.43594 9.40039 7 9.40039Z"/>
</mask>
<path d="M7 8C8.97019 8 10.6063 9.42464 10.9375 11.2998H20V12.7002H18.2002V15H16.7998V12.7002H15.2002V15H13.7998V12.7002H10.9375C10.6063 14.5754 8.97019 16 7 16C4.79086 16 3 14.2091 3 12C3 9.79086 4.79086 8 7 8ZM7 9.40039C5.56406 9.40039 4.40039 10.5641 4.40039 12C4.40039 13.4359 5.56406 14.5996 7 14.5996C8.43594 14.5996 9.59961 13.4359 9.59961 12C9.59961 10.5641 8.43594 9.40039 7 9.40039Z" fill="black"/>
<path d="M10.9375 11.2998L9.95274 11.4737L10.0986 12.2998H10.9375V11.2998ZM20 11.2998H21V10.2998H20V11.2998ZM20 12.7002V13.7002H21V12.7002H20ZM18.2002 12.7002V11.7002H17.2002V12.7002H18.2002ZM18.2002 15V16H19.2002V15H18.2002ZM16.7998 15H15.7998V16H16.7998V15ZM16.7998 12.7002H17.7998V11.7002H16.7998V12.7002ZM15.2002 12.7002V11.7002H14.2002V12.7002H15.2002ZM15.2002 15V16H16.2002V15H15.2002ZM13.7998 15H12.7998V16H13.7998V15ZM13.7998 12.7002H14.7998V11.7002H13.7998V12.7002ZM10.9375 12.7002V11.7002H10.0986L9.95274 12.5263L10.9375 12.7002ZM7 8V9C8.47609 9 9.70438 10.0675 9.95274 11.4737L10.9375 11.2998L11.9223 11.1259C11.5082 8.78175 9.46428 7 7 7V8ZM10.9375 11.2998V12.2998H20V11.2998V10.2998H10.9375V11.2998ZM20 11.2998H19V12.7002H20H21V11.2998H20ZM20 12.7002V11.7002H18.2002V12.7002V13.7002H20V12.7002ZM18.2002 12.7002H17.2002V15H18.2002H19.2002V12.7002H18.2002ZM18.2002 15V14H16.7998V15V16H18.2002V15ZM16.7998 15H17.7998V12.7002H16.7998H15.7998V15H16.7998ZM16.7998 12.7002V11.7002H15.2002V12.7002V13.7002H16.7998V12.7002ZM15.2002 12.7002H14.2002V15H15.2002H16.2002V12.7002H15.2002ZM15.2002 15V14H13.7998V15V16H15.2002V15ZM13.7998 15H14.7998V12.7002H13.7998H12.7998V15H13.7998ZM13.7998 12.7002V11.7002H10.9375V12.7002V13.7002H13.7998V12.7002ZM10.9375 12.7002L9.95274 12.5263C9.70438 13.9325 8.47609 15 7 15V16V17C9.46428 17 11.5082 15.2183 11.9223 12.8741L10.9375 12.7002ZM7 16V15C5.34315 15 4 13.6569 4 12H3H2C2 14.7614 4.23858 17 7 17V16ZM3 12H4C4 10.3431 5.34315 9 7 9V8V7C4.23858 7 2 9.23858 2 12H3ZM7 9.40039V8.40039C5.01177 8.40039 3.40039 10.0118 3.40039 12H4.40039H5.40039C5.40039 11.1163 6.11634 10.4004 7 10.4004V9.40039ZM4.40039 12H3.40039C3.40039 13.9882 5.01177 15.5996 7 15.5996V14.5996V13.5996C6.11634 13.5996 5.40039 12.8837 5.40039 12H4.40039ZM7 14.5996V15.5996C8.98822 15.5996 10.5996 13.9882 10.5996 12H9.59961H8.59961C8.59961 12.8837 7.88366 13.5996 7 13.5996V14.5996ZM9.59961 12H10.5996C10.5996 10.0118 8.98822 8.40039 7 8.40039V9.40039V10.4004C7.88366 10.4004 8.59961 11.1163 8.59961 12H9.59961Z" fill="#DCA900" mask="url(#path-1-inside-1_366_822)"/>
</svg>
