<svg width="24" height="24" viewBox="0 0 24 24" fill="none" xmlns="http://www.w3.org/2000/svg">
<path d="M14.2002 10.0752L18.8457 7.39355L19.5459 8.60645L14.8809 11.2998H20V12.7002H14.8809L19.5459 15.3936L18.8457 16.6064L14.2002 13.9238V17H12.7998V13.249C12.2751 14.8463 10.7728 16 9 16C7.02981 16 5.39369 14.5754 5.0625 12.7002H2V11.2998H5.0625C5.39369 9.42464 7.02981 8 9 8C10.7725 8 12.2748 9.15319 12.7998 10.75V7H14.2002V10.0752ZM9 9.40039C7.56406 9.40039 6.40039 10.5641 6.40039 12C6.40039 13.4359 7.56406 14.5996 9 14.5996C10.4359 14.5996 11.5996 13.4359 11.5996 12C11.5996 10.5641 10.4359 9.40039 9 9.40039Z" fill="black"/>
</svg>
