<svg width="24" height="24" viewBox="0 0 24 24" fill="none" xmlns="http://www.w3.org/2000/svg">
<path d="M19.8623 8.88574L15.6807 11.2998H20V12.7002H15.6133L19.8457 15.1436L19.1455 16.3564L12.9258 12.7656C12.5685 14.6084 10.9472 16 9 16C7.02981 16 5.39369 14.5754 5.0625 12.7002H2V11.2998H5.0625C5.39369 9.42464 7.02981 8 9 8C10.9592 8 12.5879 9.40886 12.9316 11.2686L19.1621 7.67285L19.8623 8.88574ZM9 9.40039C7.56406 9.40039 6.40039 10.5641 6.40039 12C6.40039 13.4359 7.56406 14.5996 9 14.5996C10.4359 14.5996 11.5996 13.4359 11.5996 12C11.5996 10.5641 10.4359 9.40039 9 9.40039Z" fill="black"/>
</svg>
