<svg width="24" height="24" viewBox="0 0 24 24" fill="none" xmlns="http://www.w3.org/2000/svg">
<path d="M15.2002 11.2998H21V12.7002H15.2002V17H13.7998V12.7002H12.9375C12.6063 14.5754 10.9702 16 9 16C7.02981 16 5.39369 14.5754 5.0625 12.7002H2V11.2998H5.0625C5.39369 9.42464 7.02981 8 9 8C10.9702 8 12.6063 9.42464 12.9375 11.2998H13.7998V7H15.2002V11.2998ZM9 9.40039C7.56406 9.40039 6.40039 10.5641 6.40039 12C6.40039 13.4359 7.56406 14.5996 9 14.5996C10.4359 14.5996 11.5996 13.4359 11.5996 12C11.5996 10.5641 10.4359 9.40039 9 9.40039Z" fill="black"/>
</svg>
