<svg width="24" height="24" viewBox="0 0 24 24" fill="none" xmlns="http://www.w3.org/2000/svg">
<path d="M9.38752 21.75L8.98752 18.625C8.76252 18.5416 8.54169 18.4396 8.32502 18.3187C8.10836 18.1979 7.90836 18.0708 7.72502 17.9375L4.83752 19.1375L2.21252 14.5875L4.73752 12.675C4.72086 12.567 4.71252 12.4629 4.71252 12.3627V12C4.71252 11.9 4.71461 11.7916 4.71877 11.675C4.72294 11.5583 4.73336 11.425 4.75002 11.275L2.21252 9.38748L4.83752 4.86248L7.76252 6.08748C7.92919 5.95414 8.11461 5.82914 8.31877 5.71248C8.52294 5.59581 8.74586 5.48748 8.98752 5.38748L9.38752 2.22498H14.6125L15.0125 5.34998C15.2459 5.44164 15.4604 5.54789 15.6563 5.66873C15.8521 5.78956 16.0417 5.92914 16.225 6.08748L19.1625 4.86248L21.7875 9.38748L19.1875 11.326C19.2042 11.442 19.2125 11.5479 19.2125 11.6437V12.3667C19.2125 12.4697 19.2 12.5766 19.175 12.6875L21.75 14.5875L19.125 19.1375L16.225 17.9125C16.0667 18.0375 15.8938 18.1541 15.7063 18.2625C15.5188 18.3708 15.2875 18.4916 15.0125 18.625L14.6125 21.75H9.38752ZM11.0073 19.875H12.95L13.3125 17.2125C13.8125 17.0791 14.2709 16.8896 14.6875 16.6437C15.1042 16.3979 15.4917 16.0916 15.85 15.725L18.3375 16.775L19.3 15.1L17.125 13.475C17.2 13.2416 17.2542 13.0013 17.2875 12.754C17.3209 12.5066 17.3375 12.2553 17.3375 12C17.3375 11.7416 17.3229 11.4937 17.2938 11.2562C17.2646 11.0187 17.2084 10.775 17.125 10.525L19.3 8.87498L18.3625 7.19998L15.8375 8.27498C15.5125 7.92498 15.1292 7.62081 14.6875 7.36248C14.2459 7.10414 13.7875 6.91248 13.3125 6.78748L12.9893 4.09998H11.025L10.6875 6.77498C10.1542 6.91664 9.68752 7.10206 9.28752 7.33123C8.88752 7.56039 8.49169 7.86664 8.10002 8.24998L5.63752 7.19998L4.67502 8.87498L6.81252 10.4625C6.72919 10.7291 6.67086 10.9833 6.63752 11.225C6.60419 11.4666 6.58752 11.7206 6.58752 11.9867C6.58752 12.2372 6.60211 12.4833 6.63127 12.725C6.66044 12.9666 6.71669 13.225 6.80002 13.5L4.67502 15.1L5.63952 16.775L8.08752 15.725C8.47919 16.1166 8.88544 16.4333 9.30627 16.675C9.72711 16.9166 10.1875 17.1 10.6875 17.225L11.0073 19.875ZM11.9933 15.375C12.9228 15.375 13.7167 15.0454 14.375 14.3862C15.0334 13.7271 15.3625 12.9312 15.3625 11.9987C15.3625 11.0662 15.033 10.2708 14.374 9.61248C13.7152 8.95414 12.9197 8.62498 11.9875 8.62498C11.0459 8.62498 10.2479 8.95456 9.59377 9.61373C8.93961 10.2729 8.61252 11.0687 8.61252 12.0012C8.61252 12.9337 8.93961 13.7291 9.59377 14.3875C10.2479 15.0458 11.0478 15.375 11.9933 15.375Z" fill="#1F1F1F"/>
</svg>
