<svg width="24" height="24" viewBox="0 0 24 24" fill="none" xmlns="http://www.w3.org/2000/svg">
<path d="M7.94425 19.899H16.0557V16.9395C16.0557 15.8094 15.6623 14.8444 14.8755 14.0448C14.0887 13.2451 13.1302 12.8453 12 12.8453C10.8698 12.8453 9.91133 13.2451 9.1245 14.0448C8.33766 14.8444 7.94425 15.8094 7.94425 16.9395V19.899ZM12 11.1548C13.1302 11.1548 14.0887 10.7549 14.8755 9.95528C15.6623 9.15561 16.0557 8.19069 16.0557 7.06053V4.10103H7.94425V7.06053C7.94425 8.19069 8.33766 9.15561 9.1245 9.95528C9.91133 10.7549 10.8698 11.1548 12 11.1548ZM4.702 21.298V19.899H6.54525V16.9395C6.54525 15.8227 6.86 14.8069 7.4895 13.8923C8.119 12.9776 8.94883 12.3469 9.979 12C8.94366 11.652 8.1125 11.0234 7.4855 10.1143C6.85866 9.20528 6.54525 8.18736 6.54525 7.06053V4.10103H4.702V2.70203H19.298V4.10103H17.4547V7.06053C17.4547 8.18736 17.14 9.20528 16.5105 10.1143C15.881 11.0234 15.0512 11.652 14.021 12C15.0512 12.3469 15.881 12.978 16.5105 13.8935C17.14 14.809 17.4547 15.8249 17.4547 16.941V19.899H19.298V21.298H4.702Z" fill="#1F1F1F"/>
</svg>
