<svg width="542" height="301" viewBox="0 0 542 301" fill="none" xmlns="http://www.w3.org/2000/svg">
<path d="M203.239 159.938C204.133 159.64 205.475 159.491 207.263 159.491C212.331 159.491 214.865 162.767 214.865 169.319C214.865 172.894 214.045 175.946 212.406 178.478C210.915 180.86 208.53 182.35 205.251 182.945C191.686 185.477 178.346 188.306 165.229 191.434L164.558 196.795C160.385 226.132 152.038 247.799 139.517 261.797C127.145 275.945 111.643 283.018 93.0113 283.018C80.6395 283.018 71.0253 279.966 64.1689 273.86C57.4613 267.903 54.1075 260.234 54.1075 250.852C54.1075 235.216 61.1129 221.292 75.1245 209.081C89.1357 196.869 110.376 186.073 138.846 176.691L143.318 145.195C143.914 141.621 144.659 136.855 145.554 130.899C138.548 149.364 129.605 163.14 118.724 172.223C107.842 181.307 95.6943 185.849 82.2792 185.849C69.4602 185.849 59.6972 181.977 52.9896 174.234C46.2821 166.341 42.9283 156.215 42.9283 143.855C42.9283 138.345 43.5244 132.314 44.717 125.761C45.9091 119.06 47.7725 110.05 50.3066 98.7325C52.5425 88.4571 54.1818 80.2668 55.2255 74.161C56.4176 68.0553 57.0142 62.6201 57.0142 57.8545C57.0142 50.7065 54.2565 47.1325 48.7415 47.1325C44.4187 47.1325 39.2763 49.2916 33.3142 53.6104C27.5009 57.7799 21.3148 64.2579 14.7566 73.0442C12.6697 75.8735 10.3591 77.2883 7.82547 77.2883C5.73853 77.2883 3.87517 76.3202 2.23585 74.3844C0.744985 72.2994 0 69.9915 0 67.4597C0 62.8434 2.0865 57.6312 6.26038 51.8234C21.4642 30.9747 39.2763 20.5507 59.6972 20.5507C68.7895 20.5507 75.8695 23.3058 80.9378 28.8156C86.1544 34.3254 88.7632 42.4416 88.7632 53.1636C88.7632 60.9072 88.0178 68.8746 86.5274 77.0649C85.1859 85.1065 83.0989 95.3818 80.267 107.891C78.4783 115.337 77.1368 121.368 76.2425 125.984C75.3481 130.452 74.9009 134.175 74.9009 137.153C74.9009 144.748 76.2424 150.184 78.9255 153.46C81.6085 156.736 86.3038 158.374 93.0113 158.374C101.06 158.374 109.258 153.981 117.606 145.195C126.102 136.26 133.704 122.783 140.411 104.764C147.268 86.7447 152.187 64.7046 155.168 38.6442C155.913 32.0916 157.627 27.4753 160.31 24.7948C162.993 21.9655 166.869 20.5507 171.937 20.5507C182.371 20.5507 187.588 25.7629 187.588 36.187C187.588 37.974 187.513 39.3889 187.364 40.4312C184.234 62.6201 181.327 82.6494 178.644 100.519C177.153 111.242 175.514 122.262 173.725 133.579C172.086 144.897 170.446 156.364 168.807 167.979C179.688 165.001 191.165 162.32 203.239 159.938ZM135.492 200.145C99.4206 212.655 81.3849 227.844 81.3849 245.714C81.3849 249.884 82.6517 253.309 85.1859 255.99C87.8689 258.819 91.5951 260.234 96.3651 260.234C117.084 260.234 130.052 240.725 135.269 201.709L135.492 200.145ZM226.451 211.091C217.21 211.091 209.831 207.74 204.316 201.039C198.801 194.338 196.044 185.551 196.044 174.681C196.044 162.767 198.801 151.524 204.316 140.951C209.831 130.229 217.135 121.666 226.228 115.262C235.469 108.71 245.232 105.434 255.517 105.434C258.795 105.434 260.959 106.104 262.001 107.444C263.195 108.636 264.161 110.869 264.908 114.145C268.038 113.55 271.316 113.252 274.746 113.252C282.048 113.252 285.701 115.858 285.701 121.07C285.701 124.197 284.583 131.643 282.348 143.408C278.918 160.533 277.205 172.447 277.205 179.148C277.205 181.382 277.728 183.169 278.77 184.509C279.964 185.849 281.453 186.519 283.242 186.519C286.072 186.519 289.502 184.732 293.527 181.158C297.551 177.436 302.993 171.479 309.848 163.288C311.637 161.203 313.649 160.161 315.885 160.161C317.822 160.161 319.315 161.055 320.357 162.842C321.551 164.629 322.146 167.086 322.146 170.213C322.146 176.17 320.728 180.786 317.898 184.062C311.785 191.657 305.301 198.06 298.446 203.273C291.59 208.485 284.954 211.091 278.547 211.091C273.628 211.091 269.08 209.453 264.908 206.177C260.883 202.751 257.829 198.135 255.741 192.327C247.991 204.836 238.225 211.091 226.451 211.091ZM234.5 188.53C237.778 188.53 240.908 186.594 243.891 182.722C246.874 178.85 249.033 173.712 250.375 167.309L258.647 126.208C252.387 126.357 246.574 128.74 241.208 133.356C235.991 137.823 231.817 143.78 228.687 151.226C225.557 158.672 223.992 166.564 223.992 174.904C223.992 179.52 224.886 182.945 226.675 185.179C228.612 187.413 231.221 188.53 234.5 188.53ZM388.711 160.161C390.652 160.161 392.141 161.055 393.183 162.842C394.377 164.629 394.972 167.086 394.972 170.213C394.972 176.17 393.559 180.786 390.724 184.062C384.316 191.955 377.309 198.433 369.707 203.496C362.257 208.559 353.761 211.091 344.218 211.091C331.102 211.091 321.341 205.134 314.928 193.221C308.668 181.307 305.538 165.894 305.538 146.982C305.538 128.814 307.85 108.114 312.469 84.8831C317.24 61.652 324.171 41.6968 333.262 25.0182C342.505 8.33955 353.461 0 366.129 0C373.284 0 378.874 3.35065 382.898 10.0519C387.075 16.6045 389.159 26.0605 389.159 38.4208C389.159 56.1421 384.24 76.6928 374.402 100.073C364.564 123.453 351.225 146.61 334.38 169.543C335.427 175.649 337.139 180.042 339.523 182.722C341.911 185.254 345.041 186.519 348.913 186.519C355.026 186.519 360.392 184.807 365.011 181.382C369.635 177.808 375.52 171.777 382.675 163.288C384.463 161.203 386.475 160.161 388.711 160.161ZM361.21 22.1143C357.785 22.1143 353.908 28.2942 349.584 40.6545C345.264 53.0149 341.463 68.3532 338.181 86.6701C334.903 104.987 333.115 122.559 332.815 139.387C343.4 121.964 351.82 104.54 358.08 87.1169C364.341 69.5447 367.471 53.5358 367.471 39.0909C367.471 27.7733 365.387 22.1143 361.21 22.1143ZM501.716 160.161C503.652 160.161 505.141 161.055 506.187 162.842C507.377 164.629 507.976 167.086 507.976 170.213C507.976 176.17 506.559 180.786 503.728 184.062C497.615 191.508 490.908 197.912 483.605 203.273C476.299 208.485 469.072 211.091 461.918 211.091C450.586 211.091 441.942 204.464 435.982 191.21C429.721 199.103 424.203 204.39 419.436 207.07C414.813 209.751 409.375 211.091 403.115 211.091C394.019 211.091 386.493 207.74 380.533 201.039C374.719 194.189 371.813 185.328 371.813 174.457C371.813 162.544 374.344 151.524 379.415 141.397C384.481 131.122 391.412 122.783 400.208 116.379C409.151 109.827 419.137 105.955 430.168 104.764C432.999 75.8735 438.365 51.2279 446.267 30.826C454.316 10.2753 464.824 0 477.792 0C484.2 0 489.49 2.9039 493.667 8.71169C497.986 14.5195 500.151 23.3058 500.151 35.0701C500.151 51.7488 496.05 71.2571 487.853 93.5948C479.652 115.932 468.697 138.866 454.986 162.395C455.581 171.032 456.847 177.212 458.787 180.935C460.871 184.658 463.483 186.519 466.613 186.519C470.637 186.519 474.733 184.732 478.91 181.158C483.082 177.584 488.672 171.628 495.679 163.288C497.468 161.203 499.48 160.161 501.716 160.161ZM475.333 21.8909C472.498 21.8909 469.667 26.954 466.836 37.0805C464.001 47.0579 461.542 60.1629 459.458 76.3948C457.517 92.6267 456.104 109.603 455.21 127.325C471.903 90.9889 480.251 61.8007 480.251 39.761C480.251 34.102 479.728 29.7091 478.686 26.5818C477.792 23.4545 476.674 21.8909 475.333 21.8909ZM410.94 188.53C413.771 188.53 416.601 187.413 419.436 185.179C422.267 182.797 425.844 178.478 430.168 172.223C428.675 164.182 427.933 155.172 427.933 145.195C427.933 141.621 428.08 135.813 428.38 127.771C420.179 130.303 413.324 135.813 407.81 144.301C402.444 152.641 399.761 161.948 399.761 172.223C399.761 183.094 403.486 188.53 410.94 188.53ZM520.64 91.1377C514.38 91.1377 509.684 89.7228 506.554 86.8935C503.424 83.915 501.859 79.8201 501.859 74.6078C501.859 69.3955 503.871 65.0772 507.896 61.6519C512.068 58.0779 517.21 56.2909 523.323 56.2909C528.836 56.2909 533.308 57.6312 536.738 60.3117C540.168 62.9922 541.88 66.7896 541.88 71.7039C541.88 77.6605 539.944 82.426 536.067 86C532.19 89.4253 527.048 91.1377 520.64 91.1377ZM499.176 211.091C494.404 211.091 491.127 210.123 489.338 208.187C487.549 206.251 486.655 203.198 486.655 199.029C486.655 197.837 486.803 195.753 487.102 192.774C489.486 165.522 493.439 140.727 498.952 118.39C500.146 113.773 502.082 110.571 504.765 108.784C507.596 106.849 512.068 105.881 518.18 105.881C524.588 105.881 527.795 108.486 527.795 113.699C527.795 114.443 527.647 115.858 527.347 117.943C520.64 149.811 516.615 176.542 515.274 198.135C514.974 202.901 513.561 206.251 511.026 208.187C508.49 210.123 504.542 211.091 499.176 211.091Z" fill="#1E50AF"/>
<path opacity="0.2" d="M203.239 177.808C204.133 177.51 205.475 177.361 207.263 177.361C212.331 177.361 214.865 180.637 214.865 187.19C214.865 190.764 214.045 193.816 212.406 196.348C210.915 198.731 208.53 200.22 205.251 200.816C191.686 203.347 178.346 206.177 165.229 209.304L164.558 214.665C160.385 244.002 152.038 265.669 139.517 279.668C127.145 293.815 111.643 300.888 93.0113 300.888C80.6395 300.888 71.0253 297.836 64.1689 291.73C57.4613 285.773 54.1075 278.104 54.1075 268.722C54.1075 253.086 61.1129 239.162 75.1245 226.951C89.1357 214.74 110.376 203.943 138.846 194.561L143.318 163.065C143.914 159.491 144.659 154.725 145.554 148.769C138.548 167.235 129.605 181.01 118.724 190.094C107.842 199.177 95.6943 203.72 82.2792 203.72C69.4602 203.72 59.6972 199.848 52.9896 192.104C46.2821 184.211 42.9283 174.085 42.9283 161.725C42.9283 156.215 43.5244 150.184 44.717 143.631C45.9091 136.93 47.7725 127.92 50.3066 116.603C52.5425 106.327 54.1818 98.137 55.2255 92.0312C56.4176 85.9254 57.0142 80.4902 57.0142 75.7247C57.0142 68.5767 54.2565 65.0026 48.7415 65.0026C44.4187 65.0026 39.2763 67.1618 33.3142 71.4806C27.5009 75.6501 21.3148 82.128 14.7566 90.9143C12.6697 93.7436 10.3591 95.1585 7.82547 95.1585C5.73853 95.1585 3.87517 94.1904 2.23585 92.2546C0.744985 90.1696 0 87.8617 0 85.3299C0 80.7136 2.0865 75.5014 6.26038 69.6936C21.4642 48.8449 39.2763 38.4208 59.6972 38.4208C68.7895 38.4208 75.8695 41.176 80.9378 46.6858C86.1544 52.1956 88.7632 60.3117 88.7632 71.0338C88.7632 78.7774 88.0178 86.7448 86.5274 94.9351C85.1859 102.977 83.0989 113.252 80.267 125.761C78.4783 133.207 77.1368 139.238 76.2425 143.855C75.3481 148.322 74.9009 152.045 74.9009 155.023C74.9009 162.618 76.2424 168.054 78.9255 171.33C81.6085 174.606 86.3038 176.244 93.0113 176.244C101.06 176.244 109.258 171.851 117.606 163.065C126.102 154.13 133.704 140.653 140.411 122.634C147.268 104.615 152.187 82.5748 155.168 56.5143C155.913 49.9618 157.627 45.3455 160.31 42.665C162.993 39.8357 166.869 38.4208 171.937 38.4208C182.371 38.4208 187.588 43.6331 187.588 54.0572C187.588 55.8442 187.513 57.2591 187.364 58.3013C184.234 80.4902 181.327 100.52 178.644 118.39C177.153 129.112 175.514 140.132 173.725 151.449C172.086 162.767 170.446 174.234 168.807 185.849C179.688 182.871 191.165 180.19 203.239 177.808ZM135.492 218.016C99.4206 230.525 81.3849 245.714 81.3849 263.584C81.3849 267.754 82.6517 271.179 85.1859 273.86C87.8689 276.689 91.5951 278.104 96.3651 278.104C117.084 278.104 130.052 258.596 135.269 219.579L135.492 218.016ZM226.451 228.961C217.21 228.961 209.831 225.61 204.316 218.909C198.801 212.208 196.044 203.422 196.044 192.551C196.044 180.637 198.801 169.394 204.316 158.821C209.831 148.099 217.135 139.536 226.228 133.133C235.469 126.58 245.232 123.304 255.517 123.304C258.795 123.304 260.959 123.974 262.001 125.314C263.195 126.506 264.161 128.74 264.908 132.016C268.038 131.42 271.316 131.122 274.746 131.122C282.048 131.122 285.701 133.728 285.701 138.94C285.701 142.068 284.583 149.514 282.348 161.278C278.918 178.403 277.205 190.317 277.205 197.018C277.205 199.252 277.728 201.039 278.77 202.379C279.964 203.72 281.453 204.39 283.242 204.39C286.072 204.39 289.502 202.603 293.527 199.029C297.551 195.306 302.993 189.349 309.848 181.158C311.637 179.074 313.649 178.031 315.885 178.031C317.822 178.031 319.315 178.925 320.357 180.712C321.551 182.499 322.146 184.956 322.146 188.083C322.146 194.04 320.728 198.656 317.898 201.933C311.785 209.527 305.301 215.931 298.446 221.143C291.59 226.355 284.954 228.961 278.547 228.961C273.628 228.961 269.08 227.323 264.908 224.047C260.883 220.622 257.829 216.005 255.741 210.197C247.991 222.707 238.225 228.961 226.451 228.961ZM234.5 206.4C237.778 206.4 240.908 204.464 243.891 200.592C246.874 196.72 249.033 191.583 250.375 185.179L258.647 144.078C252.387 144.227 246.574 146.61 241.208 151.226C235.991 155.694 231.817 161.65 228.687 169.096C225.557 176.542 223.992 184.435 223.992 192.774C223.992 197.39 224.886 200.816 226.675 203.049C228.612 205.283 231.221 206.4 234.5 206.4ZM388.711 178.031C390.652 178.031 392.141 178.925 393.183 180.712C394.377 182.499 394.972 184.956 394.972 188.083C394.972 194.04 393.559 198.656 390.724 201.933C384.316 209.825 377.309 216.303 369.707 221.366C362.257 226.429 353.761 228.961 344.218 228.961C331.102 228.961 321.341 223.005 314.928 211.091C308.668 199.177 305.538 183.764 305.538 164.852C305.538 146.684 307.85 125.984 312.469 102.753C317.24 79.5221 324.171 59.567 333.262 42.8884C342.505 26.2097 353.461 17.8702 366.129 17.8702C373.284 17.8702 378.874 21.2208 382.898 27.9221C387.075 34.4747 389.159 43.9306 389.159 56.291C389.159 74.0123 384.24 94.563 374.402 117.943C364.564 141.323 351.225 164.48 334.38 187.413C335.427 193.519 337.139 197.912 339.523 200.592C341.911 203.124 345.041 204.39 348.913 204.39C355.026 204.39 360.392 202.677 365.011 199.252C369.635 195.678 375.52 189.647 382.675 181.158C384.463 179.074 386.475 178.031 388.711 178.031ZM361.21 39.9845C357.785 39.9845 353.908 46.1644 349.584 58.5247C345.264 70.885 341.463 86.2234 338.181 104.54C334.903 122.857 333.115 140.429 332.815 157.257C343.4 139.834 351.82 122.41 358.08 104.987C364.341 87.4149 367.471 71.406 367.471 56.9611C367.471 45.6435 365.387 39.9845 361.21 39.9845ZM501.716 178.031C503.652 178.031 505.141 178.925 506.187 180.712C507.377 182.499 507.976 184.956 507.976 188.083C507.976 194.04 506.559 198.656 503.728 201.933C497.615 209.379 490.908 215.782 483.605 221.143C476.299 226.355 469.072 228.961 461.918 228.961C450.586 228.961 441.942 222.334 435.982 209.081C429.721 216.973 424.203 222.26 419.436 224.94C414.813 227.621 409.375 228.961 403.115 228.961C394.019 228.961 386.493 225.61 380.533 218.909C374.719 212.059 371.813 203.198 371.813 192.327C371.813 180.414 374.344 169.394 379.415 159.268C384.481 148.992 391.412 140.653 400.208 134.249C409.151 127.697 419.137 123.825 430.168 122.634C432.999 93.7436 438.365 69.098 446.267 48.6962C454.316 28.1455 464.824 17.8702 477.792 17.8702C484.2 17.8702 489.49 20.7741 493.667 26.5819C497.986 32.3897 500.151 41.176 500.151 52.9403C500.151 69.6189 496.05 89.1273 487.853 111.465C479.652 133.803 468.697 156.736 454.986 180.265C455.581 188.902 456.847 195.082 458.787 198.805C460.871 202.528 463.483 204.39 466.613 204.39C470.637 204.39 474.733 202.603 478.91 199.029C483.082 195.455 488.672 189.498 495.679 181.158C497.468 179.074 499.48 178.031 501.716 178.031ZM475.333 39.7611C472.498 39.7611 469.667 44.8241 466.836 54.9507C464.001 64.928 461.542 78.0331 459.458 94.265C457.517 110.497 456.104 127.473 455.21 145.195C471.903 108.859 480.251 79.6709 480.251 57.6312C480.251 51.9722 479.728 47.5793 478.686 44.452C477.792 41.3247 476.674 39.7611 475.333 39.7611ZM410.94 206.4C413.771 206.4 416.601 205.283 419.436 203.049C422.267 200.667 425.844 196.348 430.168 190.094C428.675 182.052 427.933 173.042 427.933 163.065C427.933 159.491 428.08 153.683 428.38 145.642C420.179 148.173 413.324 153.683 407.81 162.171C402.444 170.511 399.761 179.818 399.761 190.094C399.761 200.964 403.486 206.4 410.94 206.4ZM520.64 109.008C514.38 109.008 509.684 107.593 506.554 104.764C503.424 101.785 501.859 97.6902 501.859 92.478C501.859 87.2657 503.871 82.9474 507.896 79.5221C512.068 75.9481 517.21 74.1611 523.323 74.1611C528.836 74.1611 533.308 75.5014 536.738 78.1819C540.168 80.8624 541.88 84.6598 541.88 89.5741C541.88 95.5306 539.944 100.296 536.067 103.87C532.19 107.295 527.048 109.008 520.64 109.008ZM499.176 228.961C494.404 228.961 491.127 227.993 489.338 226.057C487.549 224.121 486.655 221.068 486.655 216.899C486.655 215.707 486.803 213.623 487.102 210.644C489.486 183.392 493.439 158.597 498.952 136.26C500.146 131.643 502.082 128.442 504.765 126.655C507.596 124.719 512.068 123.751 518.18 123.751C524.588 123.751 527.795 126.357 527.795 131.569C527.795 132.314 527.647 133.728 527.347 135.813C520.64 167.681 516.615 194.412 515.274 216.005C514.974 220.771 513.561 224.121 511.026 226.057C508.49 227.993 504.542 228.961 499.176 228.961Z" fill="#60A5FA"/>
</svg>
